# xmcd
#
# Track frame offsets:
#	150
#	11888
#	22583
#	33875
#	45058
#	58345
#	70401
#	83554
#	93721
#	104766
#	116843
#	125283
#	133509
#	146097
#	154846
#	166165
#	177017
#	186616
#	196576
#	210439
#	221309
#	232568
#	255902
#
# Disc length: 4440 seconds
#
# Revision: 2
# Processed by: cddbd v1.5.2PL0 Copyright (c) Steve Scherf et al.
# Submitted via: audiograbber 1.83.01
#
DISCID=2c115617
DTITLE=George Jones - Country Standards
DYEAR=2003
DGENRE=Country
TTITLE0=She Thinks I Still Care
TTITLE1=Take These Chains From My Heart
TTITLE2=Your Cheatin' Heart
TTITLE3=You Win Again
TTITLE4=Wedding Bells
TTITLE5=Faded Love
TTITLE6=Time Changes Everything
TTITLE7=Love's Gonna Live Here Again
TTITLE8=Blue Moon Of Kentucky (with Melba Montgomery)
TTITLE9=Beggar To A King
TTITLE10=Little Bitty Tear
TTITLE11=Yes I Know Why
TTITLE12=San Antonio Rose
TTITLE13=Take Me Back To Tulsa
TTITLE14=They'll Never Take Her Love From Me
TTITLE15=Mansion On A Hill
TTITLE16=The Race Is On
TTITLE17=It's A Sin
TTITLE18=Give My Love To Rose
TTITLE19=The Precious Jewel
TTITLE20=Don't Let The Stars Get In Your Eyes
TTITLE21=Peace In The Valley
TTITLE22=Data (Copy Control)
EXTD=
EXTT0=
EXTT1=
EXTT2=
EXTT3=
EXTT4=
EXTT5=
EXTT6=
EXTT7=New Title
EXTT8=
EXTT9=
EXTT10=
EXTT11=
EXTT12=
EXTT13=
EXTT14=
EXTT15=
EXTT16=
EXTT17=
EXTT18=
EXTT19=
EXTT20=
EXTT21=
EXTT22=
PLAYORDER=
